# xmcd
#
# Track frame offsets:
#	150
#	13739
#	27419
#	39422
#	56395
#	75228
#	85868
#	95400
#	114730
#	128298
#
# Disc length: 1971 seconds
# Revision: 0
# Processed by: cddbd v1.5.2PL0 Copyright (c) Steve Scherf et al.
# Submitted via: dBpowerAMP V12.0
#
DISCID=6907b10a
DTITLE=Jerry Wallace - Old Sweet Songs [51West] (L)
DYEAR=1982
DGENRE=Country
TTITLE0=Funny How Time Slips Away
TTITLE1=She's Got You
TTITLE2=Linda on My Mind
TTITLE3=For the Good Times
TTITLE4=Georgia
TTITLE5=Oh How I Miss You Tonight
TTITLE6=Are You Sincere
TTITLE7=Help Me Make it Though the Night
TTITLE8=It Only Hurts For a Little While
TTITLE9=Angel Flying too Close to the Ground
EXTD=
EXTT0=
EXTT1=
EXTT2=
EXTT3=
EXTT4=
EXTT5=
EXTT6=
EXTT7=
EXTT8=
EXTT9=
PLAYORDER=
